HIERARCHY
ROOT Hips
{
	OFFSET 0.000000 0.000000 0.000000 
	CHANNELS 6 Xposition Yposition Zposition Zrotation Yrotation Xrotation
	JOINT LeftUpLeg
	{
		OFFSET 1.363060 -1.794630 0.839290 
		CHANNELS 3 Zrotation Yrotation Xrotation
		JOINT LeftLeg
		{
			OFFSET 2.448110 -6.726130 0.000000 
			CHANNELS 3 Zrotation Yrotation Xrotation
			JOINT LeftFoot
			{
				OFFSET 2.562200 -7.039590 0.000000 
				CHANNELS 3 Zrotation Yrotation Xrotation
				JOINT LeftToeBase
				{
					OFFSET 0.157640 -0.433110 2.322550 
					CHANNELS 3 Zrotation Yrotation Xrotation
					End Site
					{
						OFFSET 0.000000 0.000000 0.000000 
					}
				}
			}
		}
	}
	JOINT RightUpLeg
	{
		OFFSET -1.305520 -1.794630 0.839290 
		CHANNELS 3 Zrotation Yrotation Xrotation
		JOINT RightLeg
		{
			OFFSET -2.542530 -6.985550 0.000000 
			CHANNELS 3 Zrotation Yrotation Xrotation
			JOINT RightFoot
			{
				OFFSET -2.568260 -7.056230 0.000000 
				CHANNELS 3 Zrotation Yrotation Xrotation
				JOINT RightToeBase
				{
					OFFSET -0.164730 -0.452590 2.363150 
					CHANNELS 3 Zrotation Yrotation Xrotation
					End Site
					{
						OFFSET 0.000000 0.000000 0.000000 
					}
				}
			}
		}
	}
	JOINT Spine
	{
		OFFSET 0.028270 2.035590 -0.193380 
		CHANNELS 3 Zrotation Yrotation Xrotation
		JOINT Spine1
		{
			OFFSET 0.056720 2.048850 -0.042750 
			CHANNELS 3 Zrotation Yrotation Xrotation
			JOINT Neck1
			{
				OFFSET -0.054170 1.746240 0.172020 
				CHANNELS 3 Zrotation Yrotation Xrotation
				JOINT Head
				{
					OFFSET 0.104070 1.761360 -0.123970 
					CHANNELS 3 Zrotation Yrotation Xrotation
					End Site
					{
						OFFSET 0.000000 0.000000 0.000000 
					}
				}
			}
			JOINT LeftArm
			{
				OFFSET 3.362410 1.200890 -0.311210 
				CHANNELS 3 Zrotation Yrotation Xrotation
				JOINT LeftForeArm
				{
					OFFSET 4.983000 -0.000000 -0.000000 
					CHANNELS 3 Zrotation Yrotation Xrotation
					JOINT LeftHand
					{
						OFFSET 3.483560 -0.000000 -0.000000 
						CHANNELS 3 Zrotation Yrotation Xrotation
						JOINT LeftHandIndex1
						{
							OFFSET 0.715260 -0.000000 -0.000000 
							CHANNELS 3 Zrotation Yrotation Xrotation
							End Site
							{
								OFFSET 0.000000 0.000000 0.000000 
							}
						}
					}
				}
			}
			JOINT RightArm
			{
				OFFSET -3.136600 1.374050 -0.404650 
				CHANNELS 3 Zrotation Yrotation Xrotation
				JOINT RightForeArm
				{
					OFFSET -5.241900 -0.000000 -0.000000 
					CHANNELS 3 Zrotation Yrotation Xrotation
					JOINT RightHand
					{
						OFFSET -3.444170 -0.000000 -0.000000 
						CHANNELS 3 Zrotation Yrotation Xrotation
						JOINT RightHandIndex1
						{
							OFFSET -0.622530 -0.000000 -0.000000 
							CHANNELS 3 Zrotation Yrotation Xrotation
							End Site
							{
								OFFSET 0.000000 0.000000 0.000000 
							}
						}
					}
				}
			}
		}
	}
}
MOTION
Frames: 9
Frame Time: 0.041667
3.015549 22.124907 -12.996682 -9.567149 63.615092 -10.147201 -8.324684 -5.044124 -6.342393 1.843075 9.587936 26.728832 2.397885 6.491467 30.729861 0.792400 5.682000 15.864600 21.390310 6.168516 -8.543879 -2.901458 -10.944962 28.455996 -0.662507 -22.186374 34.745159 -0.337700 -3.734600 10.331100 2.244675 -4.579645 -5.830360 3.672630 -2.204255 -9.521087 13.561169 -17.283531 -9.108322 7.689000 -8.362300 2.139800 89.097234 -45.439277 -116.704768 13.230998 -32.464574 -3.769801 -0.065396 1.514013 -42.416038 -7.125000 0.000000 0.000000 -58.554909 42.647830 -92.228091 -52.253047 56.666354 -29.096489 -1.328180 -0.071898 0.839507 7.125000 0.000000 0.000000 
2.977736 22.305036 -12.887016 -10.283509 64.107380 -11.019873 -8.471550 -4.654447 -6.267319 1.901897 9.700982 27.105425 2.249812 6.204930 29.816237 0.833100 5.822800 16.271200 22.012309 5.726221 -8.509577 -2.951001 -11.007061 28.599032 -0.194545 -23.026694 33.492613 -0.402800 -4.074500 11.286200 2.249675 -4.509423 -5.807908 3.644716 -2.173737 -9.597460 13.686211 -17.441018 -9.159385 7.752000 -8.441700 2.155000 89.312841 -45.174793 -116.521285 12.926274 -32.040548 -3.594558 0.089416 1.618003 -41.450769 -7.125000 0.000000 0.000000 -59.785822 41.533538 -92.741026 -48.246362 55.289382 -26.008088 -1.361252 0.055604 2.609890 7.125000 0.000000 0.000000 
2.943795 22.473057 -12.773878 -11.040274 64.631993 -11.863568 -8.566663 -4.248783 -6.260291 1.952048 9.795115 27.418975 2.067625 6.024338 28.709866 0.880700 5.982600 16.734100 22.609076 5.432708 -8.454500 -2.957580 -11.016246 28.602139 0.233131 -23.596578 32.210740 -0.455800 -4.331000 12.009700 2.270981 -4.462759 -5.792249 3.654149 -2.153580 -9.586587 13.754674 -17.617603 -9.205597 7.793900 -8.528600 2.174200 89.314381 -45.048624 -116.098740 12.753348 -31.781077 -3.472207 0.224692 1.714009 -40.832550 -7.125000 0.000000 0.000000 -61.088738 40.493886 -93.278743 -44.086774 53.623528 -22.866500 -1.374359 0.184432 4.537234 7.125000 0.000000 0.000000 
2.913029 22.629069 -12.658456 -11.806855 65.190196 -12.649021 -8.631273 -3.866588 -6.315392 1.992444 9.871305 27.671967 1.858016 5.917163 27.420870 0.929100 6.140400 17.192400 23.163174 5.314700 -8.392428 -2.928585 -10.984095 28.505603 0.576159 -23.827393 31.005092 -0.485000 -4.465700 12.390800 2.288668 -4.447413 -5.792680 3.659408 -2.149482 -9.527545 13.809967 -17.794115 -9.212349 7.831300 -8.615000 2.214500 89.145772 -45.060431 -115.505931 12.687949 -31.661760 -3.396075 0.331942 1.797500 -40.549071 -7.125000 0.000000 0.000000 -62.435480 39.536927 -93.888830 -39.859659 51.648620 -19.760836 -1.366534 0.313386 6.676026 7.125000 0.000000 0.000000 
2.884149 22.772875 -12.541645 -12.582896 65.779306 -13.390672 -8.672796 -3.533663 -6.411610 2.022949 9.930546 27.870718 1.634137 5.827271 25.988263 0.971600 6.275300 17.585400 23.669412 5.338029 -8.336995 -2.874772 -10.924640 28.349730 0.824270 -23.732714 29.914151 -0.487400 -4.476800 12.422000 2.286502 -4.451939 -5.808976 3.619896 -2.157627 -9.446010 13.846500 -17.975766 -9.167715 7.854400 -8.705700 2.275000 88.889183 -45.201355 -114.848817 12.705789 -31.659281 -3.360614 0.410701 1.865276 -40.568705 -7.125000 0.000000 0.000000 -63.812793 38.622482 -94.611811 -35.620894 49.341784 -16.753018 -1.336033 0.436798 9.081551 7.125000 0.000000 0.000000 
2.856658 22.905168 -12.423842 -13.356155 66.402124 -14.095066 -8.706453 -3.267941 -6.525993 2.043866 9.975168 28.023615 1.411251 5.694632 24.464913 0.994900 6.347900 17.797200 24.118963 5.472768 -8.284745 -2.808537 -10.851224 28.169587 1.004446 -23.417455 28.902224 -0.469300 -4.393700 12.186900 2.258378 -4.479251 -5.835077 3.525886 -2.180211 -9.346584 13.902113 -18.138671 -9.046112 7.877100 -8.788500 2.371300 88.566683 -45.435974 -114.163543 12.787483 -31.747181 -3.360589 0.463317 1.913950 -40.855118 -7.125000 0.000000 0.000000 -65.224517 37.735619 -95.492046 -31.444407 46.707282 -13.913829 -1.284150 0.551527 11.669843 7.125000 0.000000 0.000000 
2.830060 23.026346 -12.306634 -14.145269 67.061802 -14.802329 -8.740355 -3.096577 -6.631592 2.057434 10.009431 28.144114 1.201025 5.515605 22.912377 0.992900 6.341700 17.779200 24.506488 5.656212 -8.241354 -2.738153 -10.773542 27.989008 1.137740 -22.961811 27.944472 -0.439000 -4.251700 11.785800 2.182154 -4.505557 -5.878418 3.313227 -2.208887 -9.286461 13.998927 -18.271042 -8.870194 7.913600 -8.861500 2.477900 88.289386 -45.783768 -113.543026 12.913915 -31.912456 -3.390971 0.495464 1.943497 -41.359475 -7.125000 0.000000 0.000000 -66.565857 36.875574 -96.452999 -27.405182 43.769824 -11.307954 -1.213166 0.653868 14.339138 7.125000 0.000000 0.000000 
2.803562 23.137003 -12.190716 -15.007399 67.749612 -15.579048 -8.755650 -3.015946 -6.722250 2.066807 10.037586 28.247194 1.017226 5.262629 21.410298 0.955900 6.225900 17.441300 24.855045 5.825231 -8.213463 -2.668635 -10.697152 27.820875 1.232292 -22.416242 27.047265 -0.400700 -4.064000 11.256700 2.082785 -4.540943 -5.929221 3.026994 -2.247418 -9.251192 14.070911 -18.388539 -8.688406 7.930400 -8.927600 2.580200 87.971635 -46.180100 -112.929391 13.069001 -32.120997 -3.444790 0.511453 1.950962 -41.991372 -7.125000 0.000000 0.000000 -67.920889 36.054311 -97.577202 -23.587998 40.610014 -8.993469 -1.126895 0.741750 17.014680 7.125000 0.000000 0.000000 
2.776667 23.237439 -12.076882 -15.962899 68.462178 -16.462201 -8.750449 -3.003097 -6.794576 2.075500 10.064752 28.347451 0.863129 4.976265 20.016833 0.896900 6.036000 16.888800 25.169338 5.938858 -8.193324 -2.603001 -10.625312 27.670063 1.297841 -21.829561 26.214424 -0.366500 -3.888600 10.763600 1.956299 -4.565191 -5.989012 2.653757 -2.286142 -9.268133 14.094990 -18.505029 -8.551491 7.919600 -8.995600 2.643200 87.667172 -46.631870 -112.365068 13.238118 -32.358307 -3.515744 0.515918 1.938931 -42.657995 -7.125000 0.000000 0.000000 -69.241009 35.276004 -98.829887 -20.017953 37.281148 -6.982547 -1.026805 0.820848 19.627496 7.125000 0.000000 0.000000 
